<svg width="486" height="365" viewBox="0 0 486 365" fill="none" xmlns="http://www.w3.org/2000/svg">
<g clip-path="url(#clip0_13_68)">
<path d="M0 0H486" stroke="#00D4C3" stroke-opacity="0.1" stroke-width="1.215"/>
<path d="M0 72.8999H486" stroke="#00D4C3" stroke-opacity="0.1" stroke-width="1.215"/>
<path d="M0 145.8H486" stroke="#00D4C3" stroke-opacity="0.1" stroke-width="1.215"/>
<path d="M0 218.7H486" stroke="#00D4C3" stroke-opacity="0.1" stroke-width="1.215"/>
<path d="M0 291.6H486" stroke="#00D4C3" stroke-opacity="0.1" stroke-width="1.215"/>
<path d="M0 364.5H486" stroke="#00D4C3" stroke-opacity="0.1" stroke-width="1.215"/>
<path d="M0 0V364.5" stroke="#00D4C3" stroke-opacity="0.1" stroke-width="1.215"/>
<path d="M69.2549 0V364.5" stroke="#00D4C3" stroke-opacity="0.1" stroke-width="1.215"/>
<path d="M138.51 0V364.5" stroke="#00D4C3" stroke-opacity="0.1" stroke-width="1.215"/>
<path d="M207.765 0V364.5" stroke="#00D4C3" stroke-opacity="0.1" stroke-width="1.215"/>
<path d="M277.02 0V364.5" stroke="#00D4C3" stroke-opacity="0.1" stroke-width="1.215"/>
<path d="M346.275 0V364.5" stroke="#00D4C3" stroke-opacity="0.1" stroke-width="1.215"/>
<path d="M415.53 0V364.5" stroke="#00D4C3" stroke-opacity="0.1" stroke-width="1.215"/>
<path d="M484.785 0V364.5" stroke="#00D4C3" stroke-opacity="0.1" stroke-width="1.215"/>
<path d="M0 303.75C40.5 263.25 81 234.9 121.5 218.7C162 202.5 202.5 178.2 243 145.8C283.5 113.4 324 97.2001 364.5 97.2001C405 97.2001 445.5 81.0001 486 48.6001" stroke="url(#paint0_linear_13_68)" stroke-width="3.645" stroke-dasharray="1.22 1.22"/>
<path d="M0 303.75C40.5 263.25 81 234.9 121.5 218.7C162 202.5 202.5 178.2 243 145.8C283.5 113.4 324 97.2001 364.5 97.2001C405 97.2001 445.5 81.0001 486 48.6001V364.5H0V303.75Z" fill="url(#paint1_linear_13_68)"/>
</g>
<defs>
<linearGradient id="paint0_linear_13_68" x1="0" y1="48.6001" x2="48600" y2="48.6001" gradientUnits="userSpaceOnUse">
<stop stop-color="#00D4C3"/>
<stop offset="1" stop-color="#18354E"/>
</linearGradient>
<linearGradient id="paint1_linear_13_68" x1="0" y1="48.6001" x2="0" y2="31638.6" gradientUnits="userSpaceOnUse">
<stop stop-color="#00D4C3" stop-opacity="0.3"/>
<stop offset="1" stop-color="#00D4C3" stop-opacity="0"/>
</linearGradient>
<clipPath id="clip0_13_68">
<rect width="486" height="364.5" fill="white"/>
</clipPath>
</defs>
</svg>
